<?xml version="1.0" encoding="iso-8859-1"?>
<!-- Uploaded to: SVG Repo, www.svgrepo.com, Generator: SVG Repo Mixer Tools -->
<svg height="800px" width="800px" version="1.1" id="Layer_1" xmlns="http://www.w3.org/2000/svg" xmlns:xlink="http://www.w3.org/1999/xlink"
     viewBox="0 0 392.669 392.669" xml:space="preserve">
<path style="fill:#194F82;" d="M368.873,94.193H119.725c-13.964,0-27.927,10.796-31.612,24.63L44.671,281.474
	c-4.59,15.515,6.723,30.384,22.691,30.384h249.147c13.964,0,27.927-10.796,31.612-24.63l43.572-162.586
	C395.895,108.609,386.198,94.904,368.873,94.193z M350.319,115.979L218.053,209.07c-3.038,2.909-5.624,1.939-6.206,1.552
	l-83.717-94.642H350.319z M108.606,126.839l66.844,75.507L69.689,272.165L108.606,126.839z M82.23,290.007l107.766-71.111
	c0,0,6.012,6.788,6.206,6.982c8.727,8.663,22.432,8.986,34.133,1.293l11.766-8.275l69.754,71.176H82.23V290.007z M328.469,275.785
	l-68.331-69.689l107.184-75.442L328.469,275.785z"/>
    <g>
	<polygon style="fill:#FFFFFF;" points="175.451,202.346 108.606,126.839 69.689,272.165 	"/>
        <polygon style="fill:#FFFFFF;" points="260.137,206.161 328.469,275.785 367.321,130.718 	"/>
</g>
    <path style="fill:#56ACE0;" d="M196.202,225.878c-0.129-0.129-6.206-6.982-6.206-6.982L82.23,290.007h229.624l-69.754-71.176
	l-11.766,8.275C218.634,234.799,204.929,234.411,196.202,225.878z"/>
    <path style="fill:#FFC10D;" d="M350.319,115.979h-222.19l83.717,94.642c0.646,0.388,3.168,1.422,6.206-1.552L350.319,115.979z"/>
    <g>
	<path style="fill:#194F82;" d="M136.857,65.425h59.475c6.012,0,10.925-4.848,10.925-10.925s-4.848-10.925-10.925-10.925h-59.475
		c-6.012,0-10.925,4.848-10.925,10.925S130.78,65.425,136.857,65.425z"/>
        <path style="fill:#194F82;" d="M117.98,327.243H58.505c-6.012,0-10.925,4.848-10.925,10.925c0,6.077,4.848,10.925,10.925,10.925
		h59.41c6.012,0,10.925-4.848,10.925-10.925C128.84,332.092,123.992,327.243,117.98,327.243z"/>
        <path style="fill:#194F82;" d="M10.925,127.098h48.549c6.012,0,10.925-4.848,10.925-10.925c0-6.012-4.848-10.925-10.925-10.925
		H10.925C4.913,105.247,0,110.096,0,116.173C0.065,122.185,4.913,127.098,10.925,127.098z"/>
        <path style="fill:#194F82;" d="M48.614,187.478c0-6.012-4.848-10.925-10.925-10.925H10.925C4.913,176.552,0,181.401,0,187.478
		s4.848,10.925,10.925,10.925h26.764C43.701,198.338,48.614,193.49,48.614,187.478z"/>
        <path style="fill:#194F82;" d="M26.764,261.886H10.925C4.913,261.886,0,266.864,0,272.876s4.848,10.925,10.925,10.925h15.838
		c6.012,0,10.925-4.848,10.925-10.925S32.84,261.886,26.764,261.886z"/>
</g>
</svg>